<svg xmlns="http://www.w3.org/2000/svg" viewBox="0 0 1000 1000" fill="currentColor"><path d="M500 198C444 198 391 211 343 233C340 224 337 214 337 201C337 184 343 164 364 152L376 145L362 121L161 236L176 261L187 254C196 249 206 247 214 247C239 247 259 264 269 277C177 346 119 456 119 580C119 700 175 808 262 879H305V865C238 826 187 753 187 649C187 540 245 442 332 386L367 447C318 486 286 546 286 614C286 681 318 743 367 783H390V774C353 752 325 712 325 653C325 593 356 539 402 508L557 776L640 840C642 841 644 842 645 842V837L638 780C684 740 714 680 714 614C714 495 619 400 500 400C480 400 461 403 443 408L410 349C438 341 469 336 500 336C671 336 813 478 813 649C813 753 763 826 696 865V879H738C825 808 881 700 881 580C881 369 711 198 500 198ZM631 733 484 478C490 477 494 477 500 477C596 477 675 557 675 653C675 698 659 733 635 757ZM394 730C394 759 418 784 448 784C477 784 502 759 502 730C502 700 477 675 448 675C418 675 394 700 394 730Z"/></svg>