<svg xmlns="http://www.w3.org/2000/svg" viewBox="0 0 92.6 105.6"><path d="M46.26 5.77C46.18 5.77 46.11 5.79 46.04 5.83L5.6 29.18C5.46 29.26 5.38 29.4 5.38 29.56L5.38 76.25C5.38 76.41 5.46 76.56 5.6 76.64L46.04 99.98C46.11 100.02 46.18 100.04 46.26 100.04C46.34 100.04 46.41 100.02 46.48 99.98L86.92 76.64C87.05 76.56 87.14 76.41 87.14 76.25L87.14 29.56C87.14 29.4 87.05 29.26 86.92 29.18L46.48 5.83C46.41 5.79 46.34 5.77 46.26 5.77" fill="#1d2337" fill-rule="evenodd"/><path d="M46.27 82.02L21.66 37.23L71.06 37.23L46.27 82.02" fill="#212f4f" fill-rule="evenodd"/><path d="M46.31 97.69L85.18 75.24L46.27 82.02L46.31 97.69M71.06 37.23L85.18 75.24L85.18 30.36L71.06 37.23M7.43 75.24L21.66 37.23L7.43 30.36L7.43 75.24M21.66 37.23L71.06 37.23L46.31 7.91L21.66 37.23" fill="#1e2a46" fill-rule="evenodd"/><path d="M46.27 82.02L85.18 75.24L71.06 37.23L46.27 82.02M7.43 75.24L46.27 82.02L21.66 37.23L7.43 75.24M85.18 30.36L46.31 7.91L71.06 37.23L85.18 30.36M7.43 30.36L21.66 37.23L46.31 7.91L7.43 30.36" fill="#1d2337" fill-rule="evenodd"/><path d="M7.43 75.24L46.27 82.02L46.31 97.69L7.43 75.24" fill="#212f4f" fill-rule="evenodd"/><path d="M46.31 21.99C52.16 21.99 57.55 24.93 60.73 29.85C59.09 24.37 53.96 19.13 46.31 19.13C38.69 19.13 33.55 24.35 31.9 29.83C35.08 24.92 40.46 21.99 46.31 21.99" fill="#cda451"/><path d="M46.32 83.64C40.47 83.64 35.08 80.7 31.9 75.78C33.54 81.26 38.67 86.5 46.32 86.5C53.93 86.5 59.08 81.28 60.73 75.8C57.55 80.71 52.17 83.64 46.32 83.64" fill="#cda451"/><path d="M69.3 38.4C74.21 41.58 77.14 46.96 77.14 52.81C77.14 58.67 74.21 64.06 69.28 67.24C74.77 65.59 80 60.46 80 52.81C80 45.2 74.79 40.05 69.3 38.4" fill="#cda451"/><path d="M15.49 52.83C15.49 46.97 18.43 41.58 23.35 38.4C17.87 40.04 12.63 45.18 12.63 52.83C12.63 60.44 17.85 65.59 23.33 67.24C18.42 64.05 15.49 58.67 15.49 52.83" fill="#cda451"/><path d="M34.27 55.36C36.63 56.21 38.78 57.35 40.3 58.87C41.81 60.38 42.94 62.52 43.79 64.86C39.03 63.87 35.27 60.11 34.27 55.36M43.83 40.76C42.98 43.15 41.85 45.33 40.33 46.85C38.81 48.37 36.64 49.5 34.25 50.35C35.23 45.54 39.02 41.75 43.83 40.76M58.36 50.3C56.02 49.45 53.89 48.32 52.38 46.81C50.84 45.27 49.7 43.12 48.84 40.77C53.61 41.77 57.37 45.53 58.36 50.3M46.31 65.12C46.29 65.12 46.28 65.12 46.26 65.12C45.16 61.71 43.7 59.08 41.89 57.28C40.08 55.46 37.43 53.99 34 52.88C34 52.86 34 52.84 34 52.81L34 52.81C37.46 51.72 40.11 50.26 41.93 48.44C43.73 46.64 45.19 43.98 46.29 40.51C46.3 40.51 46.3 40.51 46.31 40.51C46.33 40.51 46.35 40.51 46.36 40.51C47.47 43.93 48.95 46.57 50.78 48.4C52.59 50.21 55.22 51.67 58.62 52.77C58.62 52.79 58.62 52.8 58.62 52.81C58.62 52.85 58.62 52.89 58.62 52.93C55.24 54.04 52.62 55.51 50.8 57.33C48.99 59.14 47.52 61.75 46.41 65.12C46.38 65.12 46.34 65.12 46.31 65.12M48.89 64.85C49.75 62.54 50.88 60.44 52.39 58.93C53.91 57.41 56.02 56.27 58.34 55.41C57.32 60.12 53.61 63.84 48.89 64.85M60.54 54.69C67.03 52.83 74.11 52.81 74.11 52.81C74.09 52.81 67.02 52.81 60.55 51C59.73 44.53 54.6 39.4 48.14 38.58C46.31 32.09 46.31 25.03 46.31 25.01C46.31 25.03 46.28 32.1 44.51 38.57C38.02 39.39 32.87 44.54 32.07 51.03C25.59 52.81 18.51 52.81 18.51 52.81C18.51 52.81 25.59 52.83 32.07 54.66C32.91 61.11 38.03 66.23 44.48 67.05C46.29 73.51 46.31 80.59 46.31 80.61C46.31 80.59 46.32 73.51 48.18 67.05C54.6 66.21 59.7 61.11 60.54 54.69" fill="#cda451"/><path d="M46.31 55.12C45.04 55.12 44 54.09 44 52.81C44 51.54 45.04 50.5 46.31 50.5C47.59 50.5 48.62 51.54 48.62 52.81C48.62 54.09 47.59 55.12 46.31 55.12M51.3 56.17L49.23 54.05L52.19 54.03L49.46 52.87L52.19 51.72L49.23 51.69L51.3 49.58L48.56 50.69L49.67 47.94L47.56 50.02L47.53 47.06L46.37 49.78L45.22 47.06L45.19 50.02L43.08 47.94L44.19 50.69L41.45 49.58L43.52 51.69L40.56 51.72L43.29 52.87L40.56 54.03L43.52 54.05L41.45 56.17L44.19 55.06L43.08 57.8L45.19 55.72L45.22 58.69L46.37 55.96L47.53 58.69L47.56 55.72L49.67 57.8L48.56 55.06L51.3 56.17" fill="#cda451"/><path d="M46.31 3.87C46.23 3.87 46.15 3.89 46.08 3.93L4.1 28.16C3.95 28.25 3.87 28.4 3.87 28.56L3.87 77.04C3.87 77.2 3.95 77.35 4.1 77.44L46.08 101.67C46.15 101.71 46.23 101.73 46.31 101.73C46.39 101.73 46.47 101.71 46.54 101.67L88.52 77.44C88.66 77.35 88.75 77.2 88.75 77.04L88.75 28.56C88.75 28.4 88.66 28.25 88.52 28.16L46.54 3.93C46.47 3.89 46.39 3.87 46.31 3.87M46.31 7.91L85.18 30.36L85.18 75.24L46.31 97.69L7.43 75.24L7.43 30.36L46.31 7.91" fill="#cda451"/></svg>